<?xml version="1.0" encoding="UTF-8"?><svg id="a" xmlns="http://www.w3.org/2000/svg" viewBox="0 0 2170.963 1195.615"><path d="M257.224,259.1l75.657,9.226s0,0,0,0h0s12.347,1.506,12.347,1.506l9.354,1.141-7.421,5.808c-.544.425-.639,1.211-.214,1.755.321.41.848.565,1.32.434.154-.043.301-.116.435-.22l4.849-3.795-3.027,5.361c-.34.602-.128,1.364.474,1.703.3.17.641.201.95.116.308-.086.584-.289.754-.59l3.026-5.36-.745,6.112c-.083.685.404,1.309,1.09,1.392.168.021.332.007.486-.036.473-.131.843-.537.906-1.053l.745-6.112,1.65,5.93c.185.665.874,1.054,1.539.869.665-.185,1.054-.874.869-1.539l-1.65-5.931,3.795,4.849c.321.41.848.566,1.32.434.154-.043.301-.116.435-.22.544-.425.639-1.211.214-1.755l-3.795-4.849,5.36,3.027c.3.17.641.201.95.116s.584-.289.754-.59c.34-.602.128-1.364-.474-1.703l-5.36-3.027,6.112.746c.168.021.332.007.486-.036.473-.131.843-.536.906-1.053.083-.685-.404-1.309-1.09-1.392l-9.355-1.141,7.421-5.808,9.792-7.664,60.026-46.978c.186-.146.299-.339.377-.545l62.808-49.394-.585-.949c-12.463-20.211-29.339-38.328-48.841-52.473l.141-.251-1.158-.495-1.02-.73-.14.249c-22.194-9.319-46.386-14.347-70.057-14.534-11.676-2.78-23.733-4.405-35.842-4.825-11.829-.413-23.837.327-35.712,2.183l-.078-.28-1.167.469-1.242.201.078.28c-11.128,4.544-21.792,10.111-31.707,16.575-10.152,6.613-19.638,14.232-28.201,22.643-20.172,12.386-38.291,29.184-52.483,48.626l-.25-.142-.497,1.155-.736,1.021.25.142c-9.395,22.184-14.489,46.414-14.723,70.156l-.011,1.115,79.296,9.859c.173.136.37.244.605.273ZM331.974,265.696l-23.784-2.9c.042-5.955,1.19-11.765,3.418-17.309l22.782,12.865c-1.17,2.322-1.979,4.783-2.416,7.344ZM312.606,243.18c2.6-5.603,6.306-10.711,10.809-14.902l17.244,22.033c-1.968,1.697-3.657,3.662-5.041,5.864l-23.013-12.995ZM345.533,267.349l-11.073-1.351c.392-2.234,1.1-4.384,2.111-6.416l9.714,5.485,5.36,3.027-6.112-.745ZM347.514,262.891l-9.714-5.485c1.218-1.917,2.693-3.633,4.403-5.123h0s6.876,8.786,6.876,8.786l3.795,4.849-5.36-3.027ZM351.048,259.527l-6.877-8.786c1.854-1.301,3.874-2.32,6.031-3.042l2.99,10.748,1.65,5.93-3.795-4.849ZM357.996,257.595l-.746,6.112-4.64-16.678c2.22-.495,4.477-.665,6.736-.508l-1.35,11.074ZM359.733,264.01l.746-6.112,1.35-11.073c2.234.393,4.383,1.102,6.414,2.114l-5.483,9.711h0s-3.027,5.36-3.027,5.36ZM366.758,261.444l-4.849,3.794,3.027-5.36,5.483-9.71c1.915,1.218,3.63,2.693,5.119,4.404l-8.78,6.872ZM377.51,253.029c-1.696-1.968-3.66-3.657-5.86-5.041l12.867-22.786c4.771,3.596,8.754,7.979,11.866,13.057l-18.873,14.771ZM371.183,169.551l9.416-77.393c22.943.312,46.353,5.214,67.872,14.209l-43.189,76.717-21.629,38.42c-5.391-3.595-11.506-6.148-17.827-7.446l5.385-44.165c.014-.118-.009-.229-.027-.341ZM382.471,223.742l-12.997,23.016c-2.322-1.171-4.782-1.981-7.343-2.419l3.387-27.776c6.021,1.263,11.832,3.723,16.952,7.179ZM363.054,216.115l-3.405,27.92c-2.587-.193-5.171.002-7.71.581l-7.685-27.623c6.206-1.558,12.518-1.854,18.8-.879ZM349.531,245.287c-2.474.815-4.788,1.982-6.904,3.483l-17.334-22.148c4.876-4.079,10.434-7.086,16.553-8.957l7.685,27.622ZM275.338,106.346c9.703-6.325,20.131-11.79,31.014-16.254l34.818,125.146c-6.422,1.954-12.26,5.099-17.386,9.363l-75.564-96.605c8.261-8.026,17.379-15.306,27.118-21.65ZM179.848,246.762c.375-22.966,5.339-46.365,14.389-67.831l60.054,34.013,14.389,8.15c.104.15.233.284.403.38l40.317,22.766c-2.382,5.815-3.632,11.915-3.722,18.167l-125.83-15.644h0Z"/><path d="M576.493,325.519l.428.675.758.254-3.718,11.102c-2.606,7.781,1.628,16.28,9.409,18.886l69.799,23.377c7.781,2.606,16.28-1.628,18.886-9.409l3.718-11.102.758.254h0s.749-.281.749-.281c13.502-5.077,26.119-13.525,36.484-24.431,10.7-11.257,19.034-25.205,24.101-40.336,5.067-15.13,6.815-31.284,5.053-46.715-1.707-14.949-6.69-29.292-14.411-41.477l-.428-.675-.758-.254,3.718-11.102c2.606-7.781-1.628-16.28-9.409-18.886l-69.799-23.377c-7.781-2.606-16.28,1.628-18.886,9.409l-3.718,11.102-.759-.254-.748.281c-13.502,5.077-26.118,13.525-36.484,24.431-10.699,11.257-19.033,25.205-24.101,40.336-5.068,15.131-6.815,31.284-5.053,46.715,1.707,14.949,6.69,29.292,14.411,41.477ZM571.403,238.757c9.558-28.538,30.892-51.546,57.159-61.701l96.567,32.342c14.853,23.926,18.027,55.142,8.469,83.681-9.558,28.538-30.892,51.546-57.16,61.7l-96.567-32.342c-14.853-23.927-18.027-55.142-8.469-83.681Z"/><path d="M621.447,195.765l98.094,32.853c1.178.395,2.453-.241,2.848-1.419s-.241-2.453-1.419-2.848l-98.094-32.853c-1.178-.395-2.453.241-2.848,1.419-.395,1.178.241,2.453,1.419,2.848Z"/><path d="M584.819,305.13l98.094,32.853c1.178.395,2.453-.241,2.848-1.419s-.241-2.453-1.419-2.848l-98.094-32.853c-1.178-.395-2.453.241-2.848,1.419s.241,2.453,1.419,2.848Z"/><path d="M586.238,275.197l113.57,38.037h0c1.178.395,2.453-.241,2.848-1.419s-.241-2.453-1.419-2.848l-113.571-38.037c-1.178-.395-2.453.241-2.848,1.419-.395,1.178.241,2.453,1.419,2.848Z"/><path d="M590.818,246.323l125.013,41.869c1.178.395,2.453-.241,2.848-1.419.395-1.178-.241-2.453-1.419-2.848l-125.013-41.869c-1.178-.395-2.453.241-2.848,1.419s.241,2.453,1.419,2.848Z"/><path d="M604.552,220.515l113.57,38.037h0c1.178.395,2.453-.241,2.848-1.419.395-1.178-.241-2.453-1.419-2.848l-113.571-38.037c-1.178-.395-2.453.241-2.848,1.419-.395,1.178.241,2.453,1.419,2.848Z"/><path d="M31.521,648.095l.428.675.758.254-3.718,11.102c-2.606,7.781,1.628,16.28,9.409,18.886l69.799,23.377c7.781,2.606,16.28-1.628,18.886-9.409l3.718-11.102.758.254h0s.749-.281.749-.281c13.502-5.077,26.119-13.525,36.485-24.431,10.7-11.257,19.034-25.205,24.101-40.336,5.067-15.13,6.815-31.284,5.053-46.715-1.707-14.949-6.69-29.292-14.411-41.477l-.428-.675-.758-.254,3.718-11.102c2.606-7.781-1.628-16.28-9.409-18.886l-69.799-23.377c-7.781-2.606-16.28,1.628-18.886,9.409l-3.718,11.102-.759-.254-.748.281c-13.502,5.077-26.118,13.525-36.484,24.431-10.699,11.257-19.033,25.205-24.101,40.336-5.068,15.131-6.815,31.284-5.053,46.715,1.707,14.949,6.69,29.292,14.411,41.477ZM26.43,561.332c9.558-28.538,30.892-51.546,57.159-61.701l96.567,32.342c14.853,23.926,18.027,55.142,8.469,83.681-9.558,28.539-30.892,51.546-57.16,61.7l-96.567-32.342c-14.853-23.927-18.027-55.142-8.469-83.681Z"/><path d="M76.475,518.341l98.094,32.853c1.178.395,2.453-.241,2.848-1.419.395-1.178-.241-2.453-1.419-2.848l-98.094-32.853c-1.178-.395-2.453.241-2.848,1.419-.395,1.178.241,2.453,1.419,2.848Z"/><path d="M39.846,627.705l98.094,32.853c1.178.395,2.453-.241,2.848-1.419.395-1.178-.241-2.453-1.419-2.848l-98.094-32.853c-1.178-.395-2.453.241-2.848,1.419s.241,2.453,1.419,2.848Z"/><path d="M41.266,597.772l113.57,38.037h0c1.178.395,2.453-.241,2.848-1.419s-.241-2.453-1.419-2.848l-113.571-38.037c-1.178-.395-2.453.241-2.848,1.419-.395,1.178.241,2.453,1.419,2.848Z"/><path d="M45.845,568.899l125.013,41.869c1.178.395,2.453-.241,2.848-1.419s-.241-2.453-1.419-2.848l-125.013-41.869c-1.178-.395-2.453.241-2.848,1.419-.395,1.178.241,2.453,1.419,2.848Z"/><path d="M59.579,543.09l113.57,38.037h0c1.178.395,2.453-.241,2.848-1.419.395-1.178-.241-2.453-1.419-2.848l-113.571-38.037c-1.178-.395-2.453.241-2.848,1.419s.241,2.453,1.419,2.848Z"/><path d="M462.063,475.704l-13.773,5.9c-2.105-4.736-5.614-8.905-10.369-11.814l-79.878-48.86c-4.755-2.909-10.065-4.133-15.24-3.851l-1.021-14.949-14.236,3.43,5.9,13.773c-4.736,2.105-8.905,5.614-11.814,10.369l-48.86,79.878c-2.909,4.755-4.133,10.065-3.851,15.24l-14.949,1.02,3.43,14.236,13.773-5.9c2.105,4.736,5.614,8.905,10.369,11.814l79.878,48.86c4.755,2.909,10.065,4.133,15.24,3.851l1.021,14.949,14.236-3.43-5.9-13.773c4.736-2.105,8.905-5.614,11.814-10.369l48.86-79.878c2.909-4.755,4.133-10.065,3.851-15.24l14.949-1.02-3.43-14.236ZM378.997,506.411l-15.556,3.748,3.748,15.556c.398,1.65-.618,3.31-2.268,3.708-1.65.398-3.31-.618-3.708-2.268l-3.748-15.556-15.556,3.748c-1.65.398-3.31-.618-3.708-2.268-.398-1.65.618-3.31,2.268-3.708l15.556-3.748-3.748-15.556c-.398-1.65.618-3.31,2.268-3.708,1.65-.398,3.31.618,3.708,2.268l3.748,15.556,15.556-3.748c1.65-.398,3.31.618,3.708,2.268.398,1.65-.618,3.31-2.268,3.708Z"/><path d="M560.059,543.302l26.717,37.114h0s0,0,0,0l4.36,6.057,3.303,4.589-5.581-.909c-.409-.067-.794.211-.861.62-.05.309.096.604.346.759.081.05.174.086.274.102l3.647.594-3.595.846c-.404.095-.653.499-.558.902.047.202.172.365.335.466.163.101.365.14.567.092l3.595-.847-2.998,2.158c-.336.242-.413.711-.171,1.047.059.083.132.149.214.2.25.155.58.153.833-.029l2.998-2.158-1.944,3.141c-.218.352-.109.814.243,1.032s.814.109,1.032-.243l1.944-3.141-.594,3.646c-.05.309.096.604.346.759.081.05.174.086.274.102.409.067.794-.211.861-.62l.594-3.646.846,3.595c.047.202.172.365.336.466.163.101.365.14.567.092.403-.095.653-.499.558-.902l-.846-3.595,2.158,2.998c.059.083.132.149.214.2.25.155.579.154.833-.029.336-.242.413-.711.171-1.047l-3.303-4.589,5.581.909,7.364,1.199,45.139,7.352c.14.023.271-.006.394-.056l47.337,7.596.18-.644c3.841-13.719,4.962-28.533,3.264-42.887l.168-.04-.253-.712-.093-.747-.167.04c-4.922-13.579-12.549-26.291-22.098-36.805-3.525-6.28-7.715-12.257-12.457-17.767-4.631-5.384-9.844-10.378-15.494-14.859l.092-.148-.682-.324-.594-.466-.092.149c-6.532-3.058-13.326-5.495-20.21-7.237-7.047-1.785-14.266-2.869-21.46-3.221-13.669-3.855-28.449-5.009-42.797-3.355l-.039-.168-.711.25-.75.091.039.168c-13.605,4.884-26.362,12.497-36.926,22.055l-.496.449,27.919,38.976c.01.132.043.263.126.378ZM592.354,585.598l-3.91-5.432c1.145-.736,2.38-1.299,3.688-1.68l1.534,6.515.846,3.595-2.159-2.999ZM596.567,584.606l-.594,3.646-.846-3.595-1.534-6.515c1.341-.243,2.698-.291,4.051-.143h0s-1.076,6.607-1.076,6.607ZM597.453,588.493l.594-3.646,1.076-6.607c1.328.288,2.6.764,3.796,1.421l-3.522,5.692-1.943,3.14ZM604.194,580.45c1.122.778,2.115,1.703,2.965,2.763l-5.432,3.911-2.998,2.158,5.466-8.832ZM604.985,579.173l9.053-14.628c3.212,2.103,5.911,4.765,8.038,7.932l-13.697,9.86c-.968-1.219-2.105-2.279-3.394-3.163ZM602.603,588.342l5.432-3.91c.736,1.145,1.298,2.381,1.678,3.689l-6.513,1.533h0s-3.595.846-3.595.846l2.998-2.158ZM610.198,593.63l-6.603-1.075-3.646-.594,3.595-.846,6.513-1.533c.242,1.34.289,2.696.141,4.049ZM609.255,583.555l13.626-9.809c1.893,3.169,3.173,6.732,3.733,10.396l-15.437,3.635c-.429-1.5-1.072-2.915-1.921-4.222ZM625.873,596.183l-14.192-2.312c.178-1.549.123-3.102-.162-4.635l15.283-3.598c.356,3.567.044,7.107-.929,10.545ZM683.872,529.774c9.198,10.243,16.562,22.56,21.352,35.709l-59.295,14.042-17.849,4.227c-.608-3.84-1.971-7.575-3.971-10.891l21.665-15.597c.058-.042.097-.097.139-.15l37.957-27.34ZM614.204,485.985c6.901.377,13.821,1.435,20.581,3.148,6.737,1.705,13.39,4.079,19.787,7.061l-27.182,43.924h0s-13.832,22.352-13.832,22.352c-3.475-2.036-7.237-3.331-11.203-3.856l11.85-72.628ZM612.762,563.755l-9.053,14.628c-1.366-.759-2.822-1.305-4.345-1.627l2.713-16.656c3.783.49,7.37,1.717,10.685,3.654ZM600.583,559.947l-2.699,16.569c-1.549-.177-3.103-.122-4.637.163l-3.634-15.435c3.529-1.134,7.289-1.578,10.969-1.298ZM591.788,577.024c-1.5.429-2.914,1.073-4.222,1.923l-8.399-11.667c2.643-2.404,5.672-4.263,9.023-5.536l3.598,15.28ZM534.014,504.164c10.279-9.18,22.617-16.512,35.764-21.256l8.835,37.743,2.865,12.238c-.024.107-.03.219-.003.332l6.367,27.041c-3.533,1.316-6.732,3.247-9.525,5.751l-44.303-61.849h0Z"/><path d="M835.737,985.072c-9.987-11.255-22.306-20.13-35.627-25.666l-.739-.307-.766.228-3.336-11.223c-2.338-7.866-10.687-12.389-18.553-10.051l-70.558,20.973c-7.866,2.338-12.389,10.687-10.051,18.553l3.336,11.223-.767.228-.451.66c-8.134,11.913-13.605,26.076-15.823,40.959-2.289,15.361-1.095,31.565,3.451,46.861,4.547,15.296,12.398,29.52,22.706,41.137,9.987,11.255,22.306,20.13,35.627,25.666l.738.307.766-.228,3.336,11.223c2.338,7.866,10.687,12.389,18.553,10.051l70.559-20.973c7.866-2.338,12.389-10.687,10.051-18.553l-3.336-11.223.765-.228.451-.66c8.134-11.913,13.606-26.077,15.823-40.959,2.289-15.361,1.096-31.566-3.451-46.861-4.546-15.295-12.398-29.52-22.706-41.137ZM842.8,1110.833l-97.618,29.016c-25.905-11.048-46.438-34.772-55.013-63.622-8.575-28.849-4.334-59.938,11.329-83.341l97.618-29.016c25.904,11.048,46.438,34.773,55.013,63.622,8.575,28.849,4.334,59.938-11.33,83.342Z"/><polygon points="845.62 1114.689 845.62 1114.689 845.62 1114.689 845.62 1114.689"/><path d="M706.425,1012.287l99.162-29.475c1.191-.354,1.87-1.607,1.516-2.798s-1.607-1.87-2.798-1.516l-99.162,29.475c-1.191.354-1.87,1.607-1.516,2.798.354,1.191,1.607,1.87,2.798,1.516Z"/><path d="M837.166,1089.053l-99.162,29.475c-1.191.354-1.87,1.607-1.516,2.798.354,1.191,1.607,1.87,2.798,1.516l99.162-29.475c1.191-.354,1.87-1.607,1.516-2.798-.354-1.191-1.607-1.87-2.798-1.516Z"/><path d="M838.056,1063.402c1.191-.354,1.87-1.607,1.516-2.798s-1.607-1.87-2.798-1.516l-114.807,34.125c-1.191.354-1.87,1.607-1.516,2.798s1.607,1.87,2.798,1.516l114.806-34.125h0Z"/><path d="M838.296,1030.903c-.354-1.191-1.607-1.87-2.798-1.516l-126.374,37.564c-1.191.354-1.87,1.607-1.516,2.798s1.607,1.87,2.798,1.516l126.374-37.564c1.191-.354,1.87-1.607,1.516-2.798Z"/><path d="M821.625,1008.125c1.191-.354,1.87-1.607,1.516-2.798s-1.607-1.87-2.798-1.516l-114.807,34.125c-1.191.354-1.87,1.607-1.516,2.798.354,1.191,1.607,1.87,2.798,1.516l114.806-34.125h0Z"/><path d="M645.976,861.805c1.718-4.889,2.026-10.33.562-15.709l-24.587-90.35c-1.464-5.379-4.486-9.913-8.445-13.258l9.514-11.575-12.71-7.272-5.158,14.068c-4.889-1.718-10.33-2.026-15.709-.562l-90.351,24.587c-5.379,1.464-9.913,4.486-13.258,8.445l-11.575-9.514-7.272,12.71,14.068,5.158c-1.718,4.889-2.026,10.33-.562,15.709l24.588,90.351c1.464,5.378,4.486,9.913,8.445,13.258l-9.514,11.575,12.71,7.272,5.158-14.068c4.889,1.718,10.33,2.026,15.709.562l90.351-24.588c5.379-1.464,9.913-4.486,13.258-8.445l11.575,9.514,7.272-12.71-14.068-5.158h0ZM582.74,831.168c-.843,1.473-2.721,1.984-4.194,1.141l-13.889-7.947-7.947,13.889c-.843,1.473-2.721,1.984-4.194,1.141-1.473-.843-1.984-2.721-1.141-4.194l7.947-13.889-13.889-7.947c-1.473-.843-1.984-2.721-1.141-4.194s2.721-1.984,4.194-1.141l13.889,7.947,7.947-13.889c.843-1.473,2.721-1.984,4.194-1.141s1.984,2.721,1.141,4.194l-7.947,13.889,13.889,7.947c1.473.843,1.984,2.721,1.141,4.194Z"/><path d="M554.204,1122.749l-.509-1.152-.248-1.23-.273.087c-9.87-21.955-24.129-42.135-41.308-58.42-6.64-9.998-14.348-19.411-22.915-27.979-8.367-8.372-17.652-16.022-27.6-22.767l.134-.258-1.173-.454-1.045-.7-.134.258c-11.236-4.269-22.831-7.474-34.49-9.512-11.934-2.09-24.068-2.992-36.067-2.683-23.199-4.706-47.906-4.784-71.547-.25l-.086-.274-1.151.505-1.234.245.086.274c-22.004,9.811-42.258,24.051-58.626,41.252l-.769.808,51.253,61.305c.034.218.104.431.257.612l49.023,58.359s0,0,0,0,0,0,0,0l8.001,9.525,6.061,7.215-9.388-.816c-.688-.06-1.293.449-1.354,1.137-.045.519.234.992.669,1.218.141.073.3.121.468.136l6.135.533-5.87,1.854c-.659.208-1.024.91-.815,1.568.104.329.332.585.615.733s.624.187.953.083l5.87-1.855-4.714,3.96c-.529.444-.597,1.232-.153,1.761.109.13.239.232.38.305.435.226.982.183,1.381-.152l4.714-3.961-2.839,5.462c-.319.613-.08,1.367.532,1.686.613.319,1.367.08,1.686-.532l2.84-5.462-.533,6.134c-.045.519.234.992.669,1.218.141.074.3.121.468.136.688.06,1.293-.449,1.354-1.137l.533-6.134,1.854,5.87c.104.329.332.585.616.733s.624.187.953.083c.659-.208,1.024-.91.815-1.568l-1.854-5.87,3.96,4.715c.109.13.239.232.38.305.435.226.982.183,1.381-.152.528-.444.597-1.232.153-1.761l-6.061-7.216,9.388.817,12.388,1.077,75.937,6.602c.235.021.45-.044.648-.141l79.62,6.733.22-1.094c4.676-23.28,4.696-48.039.087-71.685l.274-.087ZM389.613,1000.415c11.516-.233,23.149.665,34.598,2.67,11.409,1.995,22.762,5.113,33.765,9.273l-39.71,76.385s0,0,0,0l-20.207,38.87c-6.029-2.952-12.443-4.636-19.1-5.015l10.655-122.184ZM413.46,1143.185l-21.537,18.092c-1.76-1.906-3.782-3.526-6.034-4.835l13.225-25.439c5.601,3.095,10.417,7.184,14.346,12.183ZM378.683,1125.105c6.348.344,12.463,1.937,18.213,4.743l-13.225,25.439c-2.365-1.092-4.852-1.817-7.424-2.163l2.436-28.019ZM258.599,1040.609h0c15.942-16.536,35.534-30.258,56.795-39.779l19.617,62.377,6.049,19.236c-.026.181-.023.367.036.553l13.947,44.15c-5.709,2.627-10.784,6.234-15.115,10.744l-81.329-97.28ZM341.5,1139.887c4.093-4.325,8.896-7.791,14.307-10.324l7.881,24.948c-2.439.899-4.71,2.147-6.777,3.721l-15.411-18.346ZM365.697,1168.692l-7.175-8.541c1.811-1.366,3.795-2.455,5.921-3.251l3.36,10.637,1.854,5.87-3.961-4.715ZM373.541,1155.404l-.966,11.115-.533,6.134-1.854-5.87-3.36-10.637c2.198-.57,4.447-.819,6.715-.742h0ZM366.071,1153.758l-7.961-25.201c5.724-2.323,11.917-3.529,18.07-3.522l-2.423,27.874c-2.597-.102-5.172.183-7.686.849ZM374.532,1172.869l.534-6.134.966-11.115c2.243.313,4.416.947,6.485,1.89l-5.146,9.898-2.839,5.461ZM384.734,1158.663c1.961,1.153,3.727,2.568,5.272,4.224l-8.542,7.176-4.715,3.96,7.985-15.359ZM383.072,1171.977l8.541-7.175c1.365,1.811,2.453,3.795,3.248,5.922l-10.634,3.359h0s-5.87,1.854-5.87,1.854l4.715-3.96ZM385.245,1178.854l-6.134-.533,5.87-1.854,10.633-3.359c.569,2.197.817,4.445.739,6.712l-11.108-.966ZM397.249,1169.97c-.899-2.44-2.145-4.711-3.718-6.778l21.425-17.998c3.541,5.032,6.111,10.794,7.498,16.813l-25.204,7.962ZM422.723,1182.112l-23.876-2.076c.102-2.596-.181-5.17-.846-7.683l24.953-7.883c1.035,5.884.958,11.806-.231,17.642ZM468.357,1147.368l-43.513,13.808c-1.489-6.307-4.218-12.345-7.955-17.606l34.067-28.618c.091-.077.15-.174.213-.268l59.682-50.163c16.562,15.88,30.335,35.434,39.932,56.692l-82.427,26.156Z"/><polygon points="359.044 867.749 359.044 867.749 359.044 867.749 359.044 867.749"/><path d="M278.659,885.259c7.135,5.531,15.383,9.401,23.851,11.19l.469.099.427-.219,3.21,6.249c2.25,4.38,7.674,6.122,12.053,3.872l39.286-20.181c4.38-2.25,6.122-7.674,3.872-12.053l-3.21-6.249.426-.219.193-.439c3.477-7.926,5.136-16.884,4.795-25.905-.351-9.312-2.849-18.735-7.224-27.251-4.375-8.516-10.58-16.035-17.945-21.744-7.135-5.531-15.383-9.401-23.851-11.19l-.469-.099-.426.219-3.21-6.249c-2.25-4.38-7.674-6.122-12.053-3.872l-39.286,20.18c-4.38,2.25-6.122,7.674-3.872,12.053l3.21,6.249-.427.219-.193.439c-3.477,7.926-5.135,16.884-4.795,25.905.351,9.312,2.849,18.735,7.224,27.251,4.375,8.516,10.58,16.035,17.945,21.744ZM260.569,811.88l54.352-27.92c16.499,3.646,31.235,15.363,39.486,31.426s9.193,34.865,2.547,50.401l-54.352,27.92c-16.499-3.647-31.235-15.363-39.486-31.426-8.251-16.063-9.193-34.865-2.547-50.4Z"/><path d="M265.622,822.775l55.211-28.361c.663-.341.925-1.155.584-1.818-.341-.663-1.155-.925-1.818-.584l-55.211,28.361c-.663.341-.925,1.155-.584,1.818.341.663,1.155.925,1.818.584Z"/><path d="M295.425,883.746c.341.663,1.155.925,1.818.584l55.211-28.361c.663-.341.925-1.155.584-1.818-.341-.663-1.155-.925-1.818-.584l-55.211,28.361c-.663.341-.925,1.155-.584,1.818Z"/><path d="M283.164,870.595c.341.663,1.155.925,1.818.584l63.922-32.836h0c.663-.341.925-1.155.584-1.818-.341-.663-1.155-.925-1.818-.584l-63.922,32.836c-.663.341-.925,1.155-.584,1.818Z"/><path d="M272.683,856.529c.341.663,1.155.925,1.818.584l70.363-36.144c.663-.341.925-1.155.584-1.818-.341-.663-1.155-.925-1.818-.584l-70.363,36.144c-.663.341-.925,1.155-.584,1.818Z"/><path d="M267.354,839.817c.341.663,1.155.925,1.818.584l63.922-32.836h0c.663-.341.925-1.155.584-1.818-.341-.663-1.155-.925-1.818-.584l-63.922,32.836c-.663.341-.925,1.155-.584,1.818Z"/><path d="M208.738,930.808l-13.85,5.716c-2.042-4.763-5.495-8.979-10.211-11.951l-79.221-49.917c-4.716-2.971-10.009-4.267-15.187-4.053l-.822-14.961-14.28,3.24,5.716,13.85c-4.763,2.042-8.979,5.495-11.951,10.211l-49.918,79.222c-2.972,4.716-4.267,10.009-4.053,15.188l-14.961.822,3.24,14.28,13.85-5.716c2.042,4.763,5.495,8.979,10.211,11.951l79.222,49.917c4.716,2.971,10.009,4.267,15.188,4.053l.822,14.961,14.28-3.24-5.716-13.85c4.763-2.042,8.979-5.495,11.951-10.211l49.917-79.222c2.971-4.716,4.267-10.009,4.053-15.187l14.961-.822-3.24-14.28ZM125.271,960.408h0s-15.605,3.541-15.605,3.541l3.541,15.605c.376,1.655-.662,3.302-2.317,3.677-1.655.376-3.302-.662-3.677-2.317l-3.541-15.605-15.605,3.541c-1.655.376-3.302-.662-3.677-2.317-.376-1.655.662-3.302,2.317-3.677l15.605-3.541-3.541-15.605c-.376-1.655.662-3.302,2.317-3.677,1.655-.376,3.302.662,3.677,2.317l3.541,15.605,15.605-3.541c1.655-.376,3.302.662,3.677,2.317.376,1.655-.662,3.302-2.317,3.677Z"/><path d="M1420.63,221.533l75.657,9.226s0,0,0,0h0s12.348,1.506,12.348,1.506l9.354,1.141-7.421,5.808c-.544.425-.639,1.211-.214,1.755.321.41.848.565,1.32.434.154-.043.302-.116.435-.22l4.849-3.795-3.027,5.36c-.34.602-.128,1.364.474,1.703.301.17.641.201.95.116.308-.086.584-.289.754-.59l3.026-5.36-.745,6.112c-.083.685.404,1.309,1.09,1.392.168.021.332.007.486-.036.473-.131.843-.537.906-1.053l.745-6.112,1.65,5.93c.185.665.874,1.054,1.539.869.665-.185,1.054-.874.869-1.539l-1.65-5.931,3.795,4.849c.321.41.847.565,1.32.434.154-.043.301-.116.435-.22.544-.425.639-1.211.214-1.755l-3.795-4.849,5.361,3.027c.3.17.641.201.95.116.308-.086.584-.289.754-.59.34-.602.128-1.364-.474-1.703l-5.361-3.027,6.112.745c.168.021.333.007.486-.036.473-.131.843-.536.906-1.053.083-.685-.404-1.309-1.09-1.392l-9.354-1.141,7.421-5.808,9.792-7.664,60.026-46.978c.186-.146.299-.34.377-.545l62.808-49.394-.585-.949c-12.463-20.211-29.339-38.328-48.841-52.473l.141-.251-1.158-.495-1.021-.73-.141.25c-22.194-9.32-46.387-14.347-70.057-14.534-11.676-2.78-23.733-4.404-35.841-4.825-11.829-.413-23.837.327-35.712,2.183l-.078-.281-1.167.469-1.242.201.078.281c-11.128,4.544-21.792,10.111-31.707,16.575-10.152,6.613-19.638,14.232-28.201,22.643-20.172,12.386-38.291,29.184-52.483,48.626l-.25-.142-.498,1.155-.735,1.021.25.142c-9.395,22.184-14.489,46.414-14.723,70.157l-.011,1.115,79.296,9.859c.173.136.37.244.605.273ZM1495.38,228.13l-23.784-2.9c.042-5.955,1.19-11.765,3.417-17.309l22.782,12.865c-1.17,2.322-1.979,4.783-2.416,7.344ZM1476.012,205.613c2.6-5.603,6.306-10.711,10.81-14.902l17.244,22.033c-1.968,1.697-3.657,3.662-5.041,5.864l-23.013-12.995ZM1508.939,229.783l-11.073-1.35c.392-2.234,1.1-4.384,2.111-6.416l9.714,5.485,5.36,3.027-6.112-.745ZM1510.92,225.324l-9.714-5.485c1.218-1.917,2.693-3.633,4.403-5.123h0s6.876,8.787,6.876,8.787l3.795,4.849-5.361-3.027ZM1514.454,221.961l-6.877-8.786c1.854-1.301,3.874-2.32,6.031-3.042l2.99,10.748,1.65,5.93-3.794-4.849ZM1521.403,220.028l-.746,6.112-4.64-16.678c2.22-.495,4.477-.665,6.736-.508l-1.35,11.074ZM1523.139,226.443l.745-6.112,1.35-11.073c2.234.393,4.383,1.102,6.414,2.114l-5.483,9.711h0s-3.027,5.36-3.027,5.36ZM1530.164,223.878l-4.849,3.795,3.027-5.36,5.483-9.71c1.915,1.218,3.63,2.693,5.119,4.404l-8.78,6.872ZM1540.917,215.463c-1.696-1.968-3.66-3.657-5.86-5.041l12.867-22.786c4.771,3.596,8.754,7.979,11.866,13.057l-18.873,14.771ZM1534.59,131.984l9.416-77.393c22.943.312,46.353,5.213,67.872,14.209l-54.474,96.761-10.345,18.375c-5.391-3.595-11.506-6.148-17.827-7.446l5.385-44.165c.014-.118-.009-.229-.027-.341ZM1545.878,186.176l-12.996,23.016c-2.322-1.171-4.782-1.981-7.343-2.419l3.387-27.776c6.021,1.263,11.832,3.723,16.952,7.179ZM1526.461,178.549l-3.405,27.92c-2.587-.193-5.171.002-7.71.581l-7.685-27.623c6.206-1.558,12.518-1.854,18.8-.879ZM1512.937,207.72c-2.474.815-4.787,1.982-6.904,3.483l-17.334-22.148c4.876-4.079,10.434-7.086,16.552-8.957l7.685,27.622ZM1438.745,68.779c9.702-6.325,20.13-11.79,31.014-16.254l23.076,82.94h0s11.743,42.206,11.743,42.206c-6.422,1.954-12.26,5.099-17.386,9.363l-75.564-96.605c8.261-8.027,17.379-15.306,27.118-21.65ZM1343.255,209.196c.375-22.966,5.339-46.365,14.389-67.831l62.276,35.272,12.167,6.891c.104.15.233.284.403.38l40.317,22.766c-2.382,5.815-3.632,11.915-3.722,18.167l-125.83-15.644h0Z"/><path d="M1605.07,848.502l76.147-3.41c.236-.011.44-.103.624-.225l79.815-3.763.074-1.113c1.584-23.692-1.642-48.24-9.312-71.078l.26-.122-.656-1.075-.407-1.187-.259.122c-12.663-20.472-29.444-38.608-48.61-52.501-7.893-9.041-16.769-17.363-26.385-24.733-9.392-7.203-19.6-13.57-30.347-18.952l.099-.274-1.223-.296-1.128-.557-.099.274c-11.699-2.759-23.614-4.416-35.44-4.908-12.105-.508-24.252.189-36.108,2.068-23.615-1.624-48.12,1.538-70.962,9.131l-.121-.26-1.075.651-1.192.404.121.26c-20.528,12.611-38.74,29.384-52.712,48.581l-.656.902,58.847,54.056c.062.212.16.414.335.573l56.251,51.428h0s0,0,0,0l9.18,8.394,6.955,6.358-9.414.422c-.69.031-1.223.615-1.193,1.305.023.521.362.953.823,1.12.15.054.313.08.482.073l6.151-.276-5.576,2.608c-.626.293-.896,1.036-.603,1.662.146.313.406.536.706.646.301.109.643.104.956-.043l5.576-2.608-4.154,4.544c-.466.51-.431,1.3.079,1.766.125.115.267.198.417.253.461.167.998.052,1.35-.332l4.154-4.544-2.099,5.787c-.235.649.1,1.366.749,1.601s1.366-.1,1.601-.749l2.099-5.787.276,6.151c.023.521.362.952.823,1.12.15.054.313.08.482.073.69-.031,1.223-.615,1.193-1.305l-.276-6.151,2.608,5.576c.146.313.405.536.706.645.301.109.643.104.956-.043.626-.293.895-1.036.603-1.662l-2.608-5.576,4.544,4.155c.125.115.267.198.417.253.461.167.998.053,1.349-.332.466-.509.431-1.3-.079-1.766l-6.955-6.359,9.414-.421,12.422-.556ZM1630.115,844.878l-23.942,1.072c-.239-2.587-.857-5.102-1.846-7.506l23.704-11.086c1.797,5.698,2.497,11.578,2.084,17.52ZM1617.576,809.297c4.17,4.524,7.474,9.9,9.637,15.686l-23.943,11.198c-1.211-2.301-2.744-4.389-4.575-6.232l18.881-20.652ZM1596.85,828.26c-1.995-1.658-4.212-3-6.616-4.002l9.776-26.954c5.958,2.334,11.269,5.757,15.819,10.197l-18.979,20.759ZM1649.301,774.596c.08-.088.125-.192.176-.293l52.591-57.555c18.501,13.571,34.718,31.151,47.019,50.967l-86.712,40.69-32.901,15.439c-2.303-6.057-5.8-11.685-10.194-16.412l30.021-32.837ZM1576.492,794.395l1.252,27.951c-2.588.24-5.104.859-7.508,1.849l-11.196-23.94c5.37-3.054,11.352-5.061,17.452-5.86ZM1448.857,726.112h0c13.636-18.484,31.261-34.655,51.09-46.882l29.221,62.691,6.923,14.853c-.002.183.025.367.108.543l19.615,41.94c-5.315,3.353-9.874,7.594-13.576,12.633l-93.38-85.778ZM1544.058,813.666c3.491-4.824,7.798-8.889,12.83-12.111l11.084,23.7c-2.3,1.211-4.388,2.746-6.231,4.578l-17.683-16.167ZM1571.822,839.049l-8.232-7.527c1.617-1.592,3.44-2.931,5.443-3.999l4.726,10.105,2.608,5.576-4.545-4.155ZM1576.023,836.568l-4.726-10.105c2.104-.854,4.301-1.395,6.559-1.616h0s.499,11.146.499,11.146l.276,6.151-2.608-5.576ZM1573.472,669.089c11.386-1.74,23.036-2.376,34.649-1.889,11.572.482,23.236,2.085,34.689,4.767l-29.354,80.932h0s-14.937,41.184-14.937,41.184c-6.364-2.136-12.943-2.965-19.593-2.468l-5.455-122.526ZM1580.241,822.234l-1.258-28.097c6.339-.491,12.609.287,18.677,2.315l-9.776,26.953c-2.487-.772-5.049-1.165-7.643-1.171ZM1583.227,836.246l-2.099,5.786-.275-6.151-.499-11.146c2.265.017,4.502.359,6.677,1.023l-3.804,10.487ZM1589.381,826.611c2.095.886,4.031,2.057,5.78,3.496l-7.527,8.233-4.155,4.544,5.902-16.274ZM1589.478,840.028l7.527-8.232c1.591,1.617,2.929,3.441,3.996,5.445l-10.102,4.724h0s-5.576,2.607-5.576,2.607l4.155-4.544ZM1586.382,846.836l5.576-2.607,10.101-4.724c.852,2.104,1.392,4.3,1.612,6.557l-11.139.499-6.151.275Z"/><path d="M1002.877,481.748l5.36,3.027c.3.17.641.201.95.116.308-.086.584-.289.754-.59.34-.602.128-1.364-.474-1.703l-5.36-3.027,6.112.746c.168.021.332.007.486-.036.473-.131.843-.536.906-1.053.083-.685-.404-1.309-1.09-1.392l-9.355-1.141,7.421-5.808,9.792-7.664,60.026-46.978c.186-.146.299-.34.377-.545l62.808-49.394-.585-.949c-12.463-20.211-29.339-38.328-48.84-52.473l.141-.251-1.158-.495-1.02-.73-.14.249c-22.194-9.319-46.386-14.347-70.057-14.534-11.676-2.78-23.733-4.405-35.842-4.825-11.829-.413-23.837.327-35.712,2.183l-.078-.28-1.167.469-1.242.201.078.28c-11.128,4.544-21.792,10.111-31.707,16.575-10.152,6.613-19.638,14.232-28.201,22.643-20.172,12.386-38.291,29.184-52.483,48.626l-.25-.142-.498,1.155-.735,1.021.25.142c-9.395,22.184-14.489,46.414-14.723,70.157l-.011,1.115,79.296,9.859c.173.136.37.244.605.273l75.657,9.226s0,0,0,0,0,0,0,0l12.348,1.506,9.354,1.141-7.421,5.808c-.544.425-.639,1.211-.214,1.755.321.41.848.565,1.32.434.154-.043.301-.116.435-.22l4.849-3.795-3.027,5.361c-.34.602-.128,1.364.474,1.703.3.17.641.201.95.116.308-.086.584-.289.754-.59l3.026-5.36-.745,6.112c-.083.685.404,1.309,1.09,1.392.168.021.332.007.486-.036.473-.131.843-.537.906-1.053l.745-6.112,1.65,5.93c.185.665.874,1.054,1.539.869.665-.185,1.054-.874.869-1.539l-1.65-5.931,3.795,4.849c.321.41.848.566,1.32.434.154-.043.301-.116.435-.22.544-.425.639-1.211.214-1.755l-3.795-4.849ZM1007.045,468.919l-4.849,3.794,3.027-5.36,5.483-9.71c1.915,1.218,3.63,2.693,5.119,4.404l-8.78,6.872ZM1017.797,460.504c-1.696-1.968-3.66-3.657-5.86-5.041l12.867-22.786c4.771,3.596,8.754,7.979,11.866,13.057l-18.873,14.771ZM1011.47,377.026l9.416-77.393c22.943.312,46.353,5.214,67.872,14.209l-43.317,76.942-21.502,38.194c-5.391-3.595-11.506-6.148-17.827-7.446l5.385-44.165c.014-.118-.009-.229-.027-.341ZM1022.758,431.217l-12.997,23.016c-2.322-1.171-4.782-1.981-7.343-2.419l3.387-27.776c6.021,1.263,11.832,3.723,16.952,7.179ZM989.818,452.762c-2.474.815-4.787,1.982-6.904,3.483l-17.334-22.148c4.876-4.079,10.434-7.086,16.552-8.957l7.685,27.622ZM980.946,457.786c-1.968,1.697-3.657,3.662-5.041,5.864l-23.013-12.995c2.6-5.603,6.306-10.711,10.81-14.902l17.244,22.033ZM915.625,313.821c9.703-6.325,20.131-11.79,31.014-16.254l23.076,82.94h0s11.742,42.206,11.742,42.206c-6.422,1.954-12.26,5.099-17.386,9.363l-75.564-96.605c8.261-8.026,17.379-15.306,27.118-21.65ZM820.135,454.238h0c.375-22.967,5.339-46.365,14.389-67.832l60.054,34.013,14.389,8.15c.104.15.233.284.403.38l40.317,22.766c-2.382,5.815-3.632,11.915-3.722,18.167l-125.83-15.644ZM972.261,473.171l-23.784-2.9c.042-5.955,1.19-11.765,3.418-17.309l22.782,12.865c-1.17,2.322-1.979,4.783-2.416,7.344ZM985.82,474.824l-11.073-1.351c.392-2.234,1.1-4.384,2.111-6.416l9.714,5.485,5.36,3.027-6.112-.745ZM987.801,470.366l-9.714-5.485c1.218-1.917,2.693-3.633,4.403-5.123h0s6.876,8.786,6.876,8.786l3.795,4.849-5.361-3.027ZM991.335,467.002l-6.877-8.786c1.854-1.301,3.874-2.32,6.031-3.042l2.99,10.748,1.65,5.93-3.795-4.849ZM998.283,465.07l-.746,6.112-4.64-16.678c2.22-.495,4.477-.665,6.736-.508l-1.35,11.074ZM992.227,452.092l-7.685-27.623c6.206-1.558,12.518-1.854,18.8-.879l-3.405,27.92c-2.587-.193-5.171.002-7.71.581ZM1000.02,471.485l.746-6.112,1.351-11.073c2.234.393,4.383,1.102,6.414,2.114l-5.483,9.711h0s-3.027,5.36-3.027,5.36Z"/><path d="M1739.899,287.953l.428.675.758.254-3.718,11.102c-2.606,7.781,1.628,16.28,9.409,18.886l69.799,23.377c7.781,2.606,16.28-1.628,18.886-9.409l3.719-11.102.758.254h0s.749-.281.749-.281c13.502-5.077,26.119-13.525,36.485-24.431,10.7-11.257,19.034-25.205,24.101-40.336,5.068-15.13,6.815-31.284,5.053-46.715-1.707-14.949-6.69-29.292-14.411-41.477l-.428-.675-.758-.254,3.718-11.102c2.606-7.781-1.628-16.28-9.409-18.886l-69.799-23.377c-7.781-2.606-16.28,1.628-18.886,9.409l-3.718,11.102-.759-.254-.748.281c-13.502,5.077-26.118,13.525-36.484,24.431-10.699,11.257-19.033,25.205-24.101,40.336-5.068,15.131-6.815,31.284-5.053,46.715,1.707,14.949,6.69,29.292,14.411,41.477ZM1734.809,201.19c9.558-28.538,30.892-51.546,57.159-61.701l96.567,32.342c14.854,23.926,18.027,55.142,8.469,83.681-9.558,28.538-30.892,51.546-57.16,61.7l-96.567-32.342c-14.853-23.927-18.027-55.142-8.469-83.681Z"/><path d="M1784.853,158.198l98.094,32.853c1.178.395,2.453-.241,2.848-1.419.395-1.178-.241-2.453-1.419-2.848l-98.094-32.853c-1.178-.395-2.453.241-2.848,1.419-.395,1.178.241,2.453,1.419,2.848Z"/><path d="M1748.225,267.563l98.094,32.853c1.178.395,2.453-.241,2.848-1.419.395-1.178-.241-2.453-1.419-2.848l-98.094-32.853c-1.178-.395-2.453.241-2.848,1.419-.395,1.178.241,2.453,1.419,2.848Z"/><path d="M1749.644,237.63l113.57,38.037h0c1.178.395,2.453-.241,2.848-1.419.395-1.178-.241-2.453-1.419-2.848l-113.571-38.037c-1.178-.395-2.453.241-2.848,1.419-.395,1.178.241,2.453,1.419,2.848Z"/><path d="M1754.224,208.757l125.013,41.869c1.178.395,2.453-.241,2.848-1.419.395-1.178-.241-2.453-1.419-2.848l-125.014-41.869c-1.178-.395-2.453.241-2.848,1.419s.241,2.453,1.419,2.848Z"/><path d="M1767.958,182.948l113.57,38.037h0c1.178.395,2.453-.241,2.848-1.419.395-1.178-.241-2.453-1.419-2.848l-113.571-38.037c-1.178-.395-2.453.241-2.848,1.419-.395,1.178.241,2.453,1.419,2.848Z"/><path d="M2168.162,528.974l-6.846-9.498.648-.467.208-.772c3.756-13.927,4.258-29.103,1.45-43.885-2.898-15.258-9.362-30.165-18.692-43.11-9.33-12.944-21.429-23.79-34.988-31.364-13.136-7.338-27.691-11.66-42.092-12.5l-.798-.046-.648.467-6.846-9.498c-4.798-6.657-14.171-8.178-20.828-3.379l-59.714,43.041c-6.657,4.798-8.178,14.171-3.38,20.828l6.846,9.498-.649.468-.208.772c-3.756,13.927-4.258,29.102-1.45,43.885,2.898,15.258,9.362,30.165,18.692,43.109,9.33,12.945,21.429,23.79,34.988,31.364,13.136,7.338,27.691,11.66,42.092,12.5l.798.047.649-.467,6.846,9.498c4.798,6.657,14.171,8.178,20.828,3.379l59.715-43.042c6.657-4.798,8.178-14.171,3.38-20.828ZM2158.031,516.296l-82.615,59.548c-28.098-1.9-55.3-17.538-72.898-41.953s-23.833-55.166-16.752-82.423l82.615-59.548c28.098,1.9,55.3,17.538,72.898,41.953,17.598,24.415,23.833,55.166,16.751,82.423Z"/><polygon points="2161.964 519.008 2161.963 519.009 2161.963 519.009 2161.964 519.008"/><path d="M2081.239,404.533c-.727-1.008-2.133-1.236-3.141-.51l-83.921,60.49c-1.008.727-1.236,2.133-.51,3.141s2.133,1.236,3.141.51l83.921-60.49c1.008-.727,1.236-2.133.51-3.141Z"/><path d="M2061.107,561.217c.727,1.008,2.133,1.236,3.141.51l83.921-60.49c1.008-.727,1.236-2.133.51-3.141-.727-1.008-2.133-1.236-3.141-.51l-83.921,60.49c-1.008.727-1.236,2.133-.51,3.141Z"/><path d="M2137.929,473.074c1.008-.727,1.236-2.133.51-3.141-.726-1.008-2.133-1.236-3.141-.51l-97.162,70.033c-1.008.727-1.236,2.133-.51,3.141.727,1.008,2.133,1.236,3.141.51l97.161-70.033h0Z"/><path d="M2127.453,442.309c-.727-1.008-2.133-1.236-3.141-.51l-106.951,77.089c-1.008.727-1.236,2.133-.51,3.141.727,1.008,2.133,1.236,3.141.51l106.951-77.089c1.008-.727,1.236-2.133.51-3.141Z"/><path d="M2104.21,426.293c1.008-.727,1.236-2.133.51-3.141-.726-1.008-2.133-1.236-3.141-.51l-97.162,70.033c-1.008.727-1.236,2.133-.51,3.141.727,1.008,2.133,1.236,3.141.51l97.161-70.033h0Z"/><path d="M1230.236,509.963l-.469.102-.299.375c-5.397,6.767-9.3,14.998-11.289,23.804-2.053,9.089-2.059,18.838-.019,28.192s6.105,18.215,11.756,25.624c5.475,7.178,12.452,13.037,20.176,16.942l.428.216.469-.102,1.497,6.864c1.049,4.811,5.843,7.888,10.654,6.839l43.152-9.411c4.811-1.049,7.888-5.843,6.839-10.654l-1.497-6.864.469-.102h0s.299-.375.299-.375c5.397-6.767,9.301-14.998,11.289-23.804,2.053-9.09,2.06-18.839.02-28.193-2.04-9.354-6.105-18.215-11.757-25.624-5.475-7.178-12.451-13.037-20.176-16.942l-.428-.216-.468.102-1.497-6.864c-1.049-4.81-5.843-7.888-10.654-6.839l-43.151,9.411c-4.81,1.049-7.888,5.843-6.839,10.654l1.497,6.864ZM1231.283,512.498l59.7-13.02c15.009,7.763,26.24,22.872,30.088,40.515,3.848,17.643-.073,36.057-10.486,49.363l-59.7,13.02c-15.009-7.763-26.24-22.872-30.088-40.515-3.848-17.643.073-36.057,10.486-49.363Z"/><path d="M1233.368,524.325l60.644-13.226c.728-.159,1.19-.878,1.031-1.607-.159-.728-.878-1.19-1.607-1.031l-60.644,13.226c-.728.159-1.19.878-1.031,1.607s.878,1.19,1.607,1.031Z"/><path d="M1308.183,576.073l-60.644,13.226c-.728.159-1.19.878-1.031,1.607.159.728.878,1.19,1.607,1.031l60.644-13.226c.728-.159,1.19-.878,1.031-1.607-.159-.728-.878-1.19-1.607-1.031Z"/><path d="M1309.28,558.127l-70.212,15.313c-.728.159-1.19.878-1.031,1.607.159.728.878,1.19,1.607,1.031l70.212-15.313h0c.728-.159,1.19-.878,1.031-1.607-.159-.728-.878-1.19-1.607-1.031Z"/><path d="M1231.521,558.76c.159.728.878,1.19,1.607,1.031l77.286-16.855c.728-.159,1.19-.878,1.031-1.607s-.878-1.19-1.607-1.031l-77.286,16.856c-.728.159-1.19.878-1.031,1.607Z"/><path d="M1232.271,542.271l70.212-15.313h0c.728-.159,1.19-.878,1.031-1.607-.159-.728-.878-1.19-1.607-1.031l-70.212,15.313c-.728.159-1.19.878-1.031,1.607.159.728.878,1.19,1.607,1.031Z"/><path d="M1540.069,561.136l1.02,14.949,14.236-3.43-5.9-13.773c4.736-2.105,8.905-5.614,11.814-10.369l48.86-79.878c2.909-4.755,4.133-10.065,3.851-15.24l14.949-1.02-3.43-14.236-13.773,5.9c-2.105-4.736-5.614-8.905-10.369-11.814l-79.878-48.86c-4.755-2.909-10.065-4.133-15.24-3.851l-1.021-14.949-14.236,3.43,5.9,13.773c-4.736,2.105-8.905,5.614-11.814,10.369l-48.86,79.878c-2.908,4.755-4.133,10.065-3.851,15.24l-14.949,1.02,3.43,14.236,13.773-5.9c2.105,4.736,5.614,8.905,10.369,11.814l79.878,48.86c4.755,2.909,10.065,4.133,15.24,3.851ZM1520.871,474.032l-15.556,3.748c-1.65.398-3.31-.618-3.708-2.268s.618-3.31,2.268-3.708l15.556-3.748-3.748-15.556c-.398-1.65.618-3.31,2.268-3.708,1.65-.398,3.31.618,3.708,2.268l3.748,15.556,15.556-3.748c1.65-.398,3.31.618,3.708,2.268.398,1.65-.618,3.31-2.268,3.708h0s-15.556,3.748-15.556,3.748l3.748,15.556c.398,1.65-.618,3.31-2.268,3.708-1.65.398-3.31-.618-3.708-2.268l-3.748-15.556Z"/><path d="M2112.777,779.704l-13.773,5.9c-2.105-4.736-5.614-8.905-10.369-11.814l-79.878-48.86c-4.755-2.909-10.065-4.133-15.24-3.851l-1.02-14.949-14.236,3.43,5.9,13.773c-4.736,2.105-8.905,5.614-11.814,10.369l-48.86,79.878c-2.909,4.755-4.133,10.065-3.851,15.24l-14.949,1.02,3.43,14.236,13.773-5.9c2.105,4.736,5.614,8.905,10.369,11.814l79.878,48.86c4.755,2.909,10.065,4.133,15.24,3.851l1.021,14.949,14.236-3.43-5.9-13.773c4.736-2.105,8.905-5.614,11.814-10.369l48.86-79.878c2.908-4.755,4.133-10.065,3.851-15.24l14.949-1.02-3.43-14.236ZM2029.711,810.41l-15.556,3.748,3.748,15.556c.398,1.65-.618,3.31-2.268,3.708-1.65.398-3.31-.618-3.708-2.268l-3.748-15.556-15.556,3.748c-1.65.398-3.31-.618-3.708-2.268-.398-1.65.618-3.31,2.268-3.708l15.556-3.748-3.748-15.556c-.398-1.65.618-3.31,2.268-3.708,1.65-.398,3.31.618,3.708,2.268l3.748,15.556,15.556-3.748c1.65-.398,3.31.618,3.708,2.268s-.618,3.31-2.268,3.708Z"/><path d="M1016.262,137.947l13.773-5.9c2.105,4.736,5.614,8.905,10.369,11.814l79.878,48.86c4.755,2.909,10.065,4.133,15.24,3.851l1.021,14.949,14.236-3.43-5.9-13.773c4.736-2.105,8.905-5.614,11.814-10.369l48.86-79.878c2.909-4.755,4.133-10.065,3.851-15.24l14.949-1.021-3.43-14.236-13.773,5.9c-2.105-4.736-5.614-8.905-10.369-11.814l-79.878-48.86c-4.755-2.909-10.065-4.133-15.24-3.851l-1.021-14.949-14.236,3.43,5.9,13.773c-4.736,2.105-8.905,5.614-11.814,10.369l-48.86,79.878c-2.909,4.755-4.133,10.065-3.851,15.24l-14.949,1.021,3.43,14.236ZM1099.327,107.24l15.556-3.748-3.748-15.556c-.398-1.65.618-3.31,2.268-3.708,1.65-.398,3.31.618,3.708,2.268l3.748,15.556,15.556-3.748c1.65-.398,3.31.618,3.708,2.268s-.618,3.31-2.268,3.708l-15.556,3.748,3.748,15.556c.398,1.65-.618,3.31-2.268,3.708s-3.31-.618-3.708-2.268l-3.748-15.556-15.556,3.748c-1.65.398-3.31-.618-3.708-2.268-.398-1.65.618-3.31,2.268-3.708Z"/><path d="M1872.528,504.276l.149-.086-.447-.609-.304-.688-.149.086c-8.623-11.586-19.588-21.564-31.76-28.883-5.184-4.999-10.918-9.516-17.045-13.427-5.985-3.823-12.415-7.103-19.116-9.768l.045-.169-.746-.114-.703-.275-.045.169c-7.135-1.047-14.344-1.425-21.438-1.11-7.262.319-14.488,1.361-21.478,3.095-14.2.245-28.687,3.395-41.95,9.11l-.086-.149-.609.445-.692.303.086.149c-11.622,8.595-21.646,19.559-29.011,31.754l-.346.573,37.96,29.286c.048.123.117.239.229.326l36.273,27.849s0,0,0,0,0,0,0,0l5.92,4.545,4.485,3.443-5.606.737c-.411.054-.7.43-.646.841.041.31.265.551.55.627.092.025.191.032.292.019l3.663-.481-3.199,1.846c-.359.207-.482.666-.275,1.024.103.179.27.3.455.349s.39.029.569-.075l3.199-1.846-2.25,2.93c-.252.329-.19.799.138,1.052.081.062.17.105.262.13.284.076.599-.02.79-.268l2.25-2.93-.957,3.567c-.107.4.13.811.53.919s.811-.13.919-.53l.957-3.568.481,3.663c.041.31.265.551.55.627.092.025.191.032.292.019.411-.054.7-.43.646-.841l-.481-3.663,1.846,3.199c.103.179.27.3.455.35.185.05.39.029.569-.075.359-.207.482-.666.275-1.024l-1.846-3.199,2.93,2.25c.081.062.17.105.262.13.284.076.599-.02.79-.268.252-.328.19-.799-.138-1.052l-4.485-3.443,5.606-.736,7.397-.972,45.345-5.957c.141-.018.258-.084.361-.167l47.519-6.357-.013-.669c-.272-14.244-3.464-28.753-9.224-42.01ZM1781.034,450.9c6.943-.308,13.998.05,20.982,1.065l-13.383,49.891h0s-6.81,25.388-6.81,25.388c-3.914-.95-7.89-1.106-11.839-.467l-9.566-72.964c6.717-1.626,13.649-2.606,20.615-2.912ZM1793.998,535.356c2.725,2.49,4.977,5.533,6.568,8.881l-13.737,7.926c-.842-1.313-1.866-2.483-3.055-3.49l10.224-13.317ZM1782.585,547.759c-1.278-.889-2.672-1.576-4.161-2.052l4.457-16.616c3.682,1.089,7.033,2.861,9.981,5.281l-10.277,13.386ZM1768.672,528.563l2.187,16.644c-1.535.276-3.007.776-4.393,1.492l-7.925-13.735c3.053-2.102,6.526-3.61,10.131-4.401ZM1688.859,494.312h0c7.2-11.751,16.904-22.325,28.129-30.655l19.821,34.455,5.775,10.04c.008.109.034.218.092.319l13.884,24.063c-3.005,2.278-5.512,5.047-7.466,8.249l-60.236-46.472ZM1761.678,550.506l-11.403-8.755c1.839-3.064,4.204-5.715,7.046-7.9l7.845,13.597c-1.313.842-2.482,1.867-3.489,3.057ZM1768.178,555.497l-5.309-4.076c.885-1.035,1.906-1.929,3.048-2.671l3.345,5.797,1.846,3.199-2.931-2.25ZM1770.562,553.797l-3.345-5.797c1.214-.619,2.5-1.055,3.838-1.303h0s.872,6.637.872,6.637l.481,3.663-1.846-3.199ZM1772.346,545.011l-2.198-16.731c3.764-.62,7.552-.478,11.284.423l-4.457,16.615c-1.527-.334-3.078-.437-4.629-.307ZM1774.852,553.234l-.957,3.567-.481-3.663-.872-6.637c1.355-.107,2.71-.017,4.044.268l-1.734,6.465ZM1775.344,557.19l2.691-10.032c1.298.422,2.516,1.022,3.635,1.793l-4.076,5.309-2.25,2.93ZM1778.783,555.173l4.076-5.309c1.034.885,1.928,1.906,2.669,3.049l-5.796,3.344h0s-3.199,1.846-3.199,1.846l2.25-2.93ZM1780.946,558.921l-3.663.481,3.199-1.846,5.795-3.344c.618,1.214,1.054,2.499,1.301,3.837l-6.633.872ZM1789.068,557.854c-.276-1.534-.775-3.006-1.49-4.392l13.599-7.847c1.367,3.313,2.089,6.793,2.147,10.366l-14.257,1.873ZM1804.539,541.89l-2.679,1.551c-1.688-3.502-4.069-6.687-6.939-9.286l16.257-21.175c.043-.057.065-.121.09-.184l28.477-37.112c11.758,7.161,22.357,16.835,30.73,28.048l-65.936,38.158Z"/><path d="M2045.6,1021.496l.058-.163-.735-.174-.678-.328-.058.162c-14.074-3.246-28.891-3.749-42.905-1.445-7.187-.452-14.482-.182-21.684.805-7.036.963-14.061,2.626-20.892,4.935l-.075-.158-.642.396-.714.246.078.165c-6.115,3.822-11.857,8.195-17.059,13.028-5.327,4.946-10.159,10.418-14.364,16.266-10.663,9.381-19.662,21.163-26.069,34.106l-.162-.058-.176.733-.331.679.162.058c-3.291,14.075-3.831,28.921-1.546,42.983l.107.661,47.891-2.262c.116.063.244.107.386.1l45.674-2.265s0,0,0,0t0,0l7.454-.369,5.647-.28-3.795,4.191c-.278.307-.254.781.053,1.06.232.21.559.248.825.122.087-.041.167-.099.235-.175l2.48-2.739-1.243,3.478c-.14.39.064.819.454.958.195.07.4.054.573-.028.174-.082.316-.231.385-.425l1.242-3.478.183,3.69c.021.414.372.733.786.712.102-.005.197-.03.284-.071.266-.126.444-.403.428-.715l-.183-3.69,1.581,3.338c.177.374.624.534.999.357.375-.177.534-.624.357-.999l-1.581-3.338,2.739,2.48c.232.21.559.248.825.122.086-.041.166-.099.235-.174.278-.307.254-.781-.053-1.059l-2.739-2.48,3.478,1.243c.195.07.4.054.573-.029.173-.082.316-.23.385-.425.14-.39-.064-.819-.454-.958l-3.478-1.243,3.69-.183c.102-.005.197-.03.284-.071.266-.126.444-.403.428-.715-.021-.414-.372-.732-.786-.712l-5.647.28,3.795-4.191,5.008-5.53,30.698-33.901c.095-.105.142-.231.167-.361l32.096-35.614-.443-.502c-9.431-10.678-21.258-19.668-34.232-26.041ZM2004.378,1096.016l.836,16.856c-1.549.15-3.057.529-4.499,1.131l-7.363-15.548c3.51-1.554,7.212-2.373,11.026-2.438ZM1999.359,1114.644c-1.379.734-2.628,1.66-3.726,2.764l-12.509-11.327c2.467-2.909,5.446-5.254,8.873-6.985l7.362,15.548ZM1941.315,1040.064c5.091-4.73,10.699-9.025,16.679-12.775l22.107,46.684s0,0,0,0l8.852,18.693,2.398,5.064c-3.597,1.811-6.729,4.266-9.324,7.31l-54.535-49.408c4.066-5.589,8.714-10.823,13.825-15.568ZM1975.177,1129.241l-75.994,3.59h0c-2.122-13.618-1.574-27.959,1.586-41.574l36.191,12.983,12.126,4.35c.077.078.167.144.277.183l26.161,9.347c-.815,3.681-.932,7.415-.347,11.121ZM1991.061,1128.502l-14.358.712c-.583-3.525-.497-7.078.255-10.583l14.783,5.282c-.455,1.492-.682,3.03-.679,4.589ZM1977.312,1117.166c.965-3.578,2.635-6.976,4.87-9.914l12.444,11.268c-.99,1.204-1.789,2.539-2.382,3.981l-14.932-5.335ZM1999.246,1128.096l-6.685.331c.004-1.361.203-2.704.594-4.009l6.303,2.252,3.478,1.243-3.69.183ZM1999.963,1125.258l-6.303-2.252c.525-1.257,1.222-2.423,2.081-3.478h0s4.962,4.494,4.962,4.494l2.739,2.479-3.478-1.243ZM2001.709,1122.909l-4.962-4.493c.963-.958,2.054-1.767,3.255-2.414l2.865,6.05,1.581,3.338-2.738-2.48ZM2001.358,1115.36c1.262-.519,2.579-.85,3.931-.988l.332,6.685.183,3.69-4.445-9.387ZM2005.881,1096.03c3.689.133,7.376.994,10.756,2.515l-5.336,14.935c-1.492-.455-3.03-.683-4.588-.681l-.832-16.768ZM2008.544,1121.195l-1.243,3.478-.183-3.69-.331-6.685c1.361.005,2.704.204,4.008.595l-2.251,6.301h0ZM2011.194,1122.439l-2.48,2.738,1.243-3.478,2.251-6.301c1.257.525,2.421,1.222,3.476,2.081l-4.49,4.959ZM2016.692,1116.366c-1.204-.99-2.537-1.789-3.979-2.382l5.283-14.786c3.188,1.639,5.99,3.824,8.348,6.509l-9.652,10.659ZM2017.107,1097.1c-3.554-1.576-7.43-2.461-11.3-2.584l-1.323-26.663c-.004-.071-.029-.135-.051-.199l-2.33-46.72c13.597-2.157,27.938-1.647,41.58,1.476l-26.576,74.69Z"/><path d="M1783.542,1063.971c-.469-15.524-4.514-31.26-11.698-45.508-7.184-14.248-17.431-26.857-29.635-36.464-11.823-9.307-25.519-15.86-39.61-18.949l-.781-.171-.713.36-5.271-10.455c-3.695-7.327-12.712-10.299-20.04-6.605l-65.727,33.141c-7.327,3.695-10.299,12.712-6.605,20.04l5.271,10.455-.714.36-.327.73c-5.895,13.166-8.77,28.074-8.316,43.114.469,15.523,4.514,31.26,11.698,45.508,7.184,14.248,17.432,26.857,29.635,36.464,11.823,9.307,25.519,15.86,39.61,18.949l.781.171.714-.36,5.272,10.455c3.695,7.327,12.712,10.299,20.04,6.605l65.727-33.142c7.327-3.695,10.299-12.712,6.605-20.04l-5.272-10.455.714-.36h0s.327-.73.327-.73c5.895-13.166,8.771-28.075,8.316-43.114ZM1771.441,1104.519l-90.933,45.851c-27.452-6.284-51.864-25.995-65.414-52.869s-14.884-58.222-3.615-84.03l90.934-45.851c27.452,6.284,51.864,25.995,65.414,52.869,13.55,26.874,14.884,58.222,3.614,84.03Z"/><path d="M1713.132,982.093c-.559-1.109-1.913-1.555-3.022-.996l-92.371,46.576c-1.109.559-1.555,1.913-.996,3.022s1.913,1.555,3.022.996l92.371-46.576c1.109-.559,1.555-1.913.996-3.022Z"/><path d="M1762.038,1084.082l-92.371,46.576c-1.109.559-1.555,1.913-.996,3.022.559,1.109,1.913,1.556,3.022.996l92.371-46.576c1.109-.559,1.556-1.913.996-3.022-.559-1.109-1.913-1.555-3.022-.996Z"/><path d="M1758.369,1058.679c1.109-.559,1.555-1.913.996-3.022-.559-1.109-1.913-1.555-3.022-.996l-106.945,53.925c-1.109.559-1.555,1.913-.996,3.022.559,1.109,1.913,1.555,3.022.996l106.944-53.924h0Z"/><path d="M1752.848,1026.652c-.56-1.109-1.913-1.555-3.022-.996l-117.72,59.358c-1.109.559-1.556,1.913-.996,3.022.559,1.109,1.913,1.555,3.022.996l117.72-59.358c1.109-.559,1.555-1.913.996-3.022Z"/><path d="M1732.405,1007.187c1.109-.559,1.555-1.913.996-3.022s-1.913-1.555-3.022-.996l-106.945,53.925c-1.109.559-1.556,1.913-.996,3.022.559,1.109,1.913,1.555,3.022.996l106.945-53.924h0Z"/><path d="M1267.795,746.315l-6.945-5.709-4.363,7.626,8.441,3.095c-1.031,2.934-1.215,6.198-.337,9.425l14.753,54.21c.878,3.227,2.692,5.948,5.067,7.955l-5.708,6.945,7.626,4.363,3.095-8.441c2.934,1.031,6.198,1.215,9.425.337l54.21-14.753c3.227-.878,5.948-2.692,7.955-5.067l6.945,5.708,4.363-7.626-8.441-3.095h0c1.031-2.934,1.216-6.198.337-9.425l-14.752-54.21c-.878-3.227-2.692-5.948-5.067-7.955l5.708-6.945-7.626-4.363-3.095,8.441c-2.934-1.031-6.198-1.215-9.426-.337l-54.211,14.752c-3.227.878-5.948,2.692-7.955,5.067ZM1302.869,769.709c.506-.884,1.633-1.191,2.516-.685l8.333,4.768,4.768-8.333c.506-.884,1.633-1.191,2.517-.685s1.191,1.632.685,2.516l-4.768,8.333,8.333,4.768c.884.506,1.191,1.632.685,2.516-.506.884-1.632,1.191-2.516.685l-8.333-4.768-4.768,8.333c-.506.884-1.632,1.191-2.516.685s-1.191-1.632-.685-2.516l4.768-8.333-8.333-4.768c-.884-.506-1.191-1.632-.685-2.516Z"/><path d="M1375.002,949.111l.129-.257-1.18-.44-1.054-.682-.129.256c-22.606-8.271-47.007-12.16-70.661-11.24-11.793-2.231-23.913-3.289-36.028-3.142-11.836.141-23.796,1.443-35.571,3.852l-.091-.277-1.144.523-1.231.259.091.277c-10.903,5.06-21.295,11.12-30.897,18.04-9.831,7.081-18.951,15.135-27.111,23.939-19.57,13.316-36.883,30.944-50.149,51.029l-.256-.13-.443,1.177-.687,1.054.256.13c-8.346,22.6-12.301,47.041-11.423,70.769l.041,1.115,79.671,6.137c.18.128.381.227.617.244l76.006,5.675h0s0,0,0,0l12.405.926,9.397.702-7.141,6.149c-.523.45-.582,1.239-.132,1.763.34.395.873.525,1.339.372.151-.05.296-.13.424-.24l4.666-4.018-2.773,5.496c-.311.617-.064,1.368.553,1.679.308.156.65.171.954.071.304-.1.57-.316.725-.624l2.772-5.496-.458,6.14c-.051.689.465,1.288,1.154,1.34.169.013.332-.009.484-.059.466-.153.817-.576.856-1.095l.458-6.14,1.926,5.846c.216.656.922,1.012,1.578.796.656-.216,1.012-.922.796-1.578l-1.926-5.847,4.018,4.666c.34.395.873.525,1.339.372.151-.05.296-.13.424-.24.523-.45.582-1.239.132-1.763l-4.018-4.666,5.496,2.773c.308.155.65.171.954.071.304-.1.57-.316.725-.624.311-.617.064-1.368-.553-1.679l-5.496-2.773,6.14.459c.169.013.332-.009.484-.059.466-.153.817-.575.856-1.095.051-.688-.465-1.288-1.154-1.34l-9.398-.702,7.141-6.149,9.423-8.113,57.762-49.736c.179-.154.283-.353.351-.562l60.428-52.28-.629-.921c-13.395-19.606-31.1-36.913-51.243-50.129ZM1293.939,1064.186c6.074.98,11.993,3.165,17.27,6.377l-11.905,23.599c-2.374-1.061-4.87-1.755-7.448-2.073l2.083-27.904ZM1254.229,1076.115c4.68-4.303,10.091-7.566,16.115-9.722l8.969,27.232c-2.433.93-4.689,2.204-6.733,3.802l-18.352-21.313ZM1270.687,1099.06c-1.887,1.787-3.482,3.829-4.761,6.093l-23.596-11.904c2.335-5.719,5.798-10.994,10.1-15.392l18.256,21.202ZM1198.699,958.31c9.396-6.772,19.557-12.719,30.219-17.688l26.932,81.769h0s13.705,41.61,13.705,41.61c-6.323,2.253-12.008,5.667-16.929,10.167l-80.002-92.963c7.877-8.404,16.644-16.103,26.075-22.896ZM1109.885,1103.042h0c-.7-22.959,3.163-46.565,11.199-68.431l59.287,30.005,17.047,8.628c.111.145.246.273.42.361l41.338,20.854c-2.107,5.921-3.07,12.072-2.868,18.321l-126.424-9.738ZM1262.731,1114.835l-23.893-1.784c-.236-5.95.638-11.808,2.604-17.45l23.36,11.784c-1.06,2.374-1.753,4.87-2.07,7.449ZM1276.352,1115.852l-11.124-.831c.287-2.25.893-4.43,1.808-6.508l9.96,5.024,5.496,2.773-6.141-.458ZM1278.122,1111.305l-9.96-5.025c1.127-1.971,2.52-3.755,4.159-5.324h0s7.28,8.455,7.28,8.455l4.018,4.666-5.496-2.773ZM1281.495,1107.78l-7.281-8.455c1.791-1.386,3.761-2.499,5.882-3.321l3.49,10.596,1.925,5.846-4.017-4.666ZM1288.345,1105.524l-.459,6.14-5.415-16.442c2.194-.598,4.441-.874,6.705-.823l-.831,11.125ZM1289.362,1091.903c-2.593-.071-5.165.244-7.675.942l-8.97-27.233c6.127-1.847,12.417-2.437,18.739-1.758l-2.094,28.049ZM1290.38,1111.851l.459-6.14.831-11.124c2.25.288,4.429.895,6.506,1.812l-5.023,9.957h0s-2.773,5.496-2.773,5.496ZM1297.278,1108.959l-4.666,4.017,2.773-5.496,5.023-9.956c1.97,1.127,3.752,2.52,5.32,4.159l-8.449,7.275ZM1307.624,1100.05c-1.786-1.886-3.827-3.482-6.09-4.761l11.786-23.363c4.934,3.369,9.118,7.56,12.464,12.487l-18.161,15.637ZM1341.933,1009.31l-29.65,58.962c-5.554-3.339-11.781-5.603-18.156-6.604l3.312-44.369c.009-.119-.02-.228-.042-.339l5.783-77.749c22.932-.762,46.546,3.038,68.462,11.017l-29.71,59.082Z"/><path d="M1117.156,833.356c-.417-9.018-2.821-17.806-6.95-25.412l-.229-.422-.443-.183,2.675-6.496c1.875-4.553-.317-9.812-4.869-11.686l-40.839-16.816c-4.553-1.875-9.812.317-11.686,4.869l-2.675,6.496-.444-.183-.459.138c-8.288,2.493-16.182,7.04-22.829,13.15-6.86,6.306-12.413,14.319-16.058,23.172-3.645,8.853-5.344,18.452-4.914,27.761.417,9.018,2.821,17.806,6.95,25.412l.229.422.444.183-2.675,6.496c-1.875,4.553.317,9.812,4.869,11.686l40.839,16.816c4.553,1.875,9.812-.317,11.686-4.869l2.675-6.496.443.182.46-.138c8.288-2.493,16.182-7.041,22.829-13.15,6.86-6.306,12.413-14.319,16.059-23.172,3.645-8.853,5.344-18.452,4.914-27.761ZM1073.034,894.714l-56.501-23.265c-7.924-14.924-8.562-33.739-1.687-50.437,6.875-16.698,20.577-29.609,36.712-34.625l56.501,23.265c7.925,14.924,8.562,33.739,1.687,50.437-6.875,16.698-20.577,29.609-36.712,34.625Z"/><path d="M1104.965,818.436l-57.394-23.633c-.689-.284-1.479.045-1.762.734-.284.689.045,1.478.734,1.762l57.394,23.633c.689.284,1.479-.045,1.762-.734.284-.689-.045-1.479-.734-1.762Z"/><path d="M1078.617,882.425l-57.395-23.633c-.689-.284-1.479.045-1.762.734-.284.689.045,1.478.734,1.762l57.394,23.633c.689.284,1.479-.045,1.762-.734.284-.689-.045-1.479-.734-1.762Z"/><path d="M1089.731,868.292l-66.45-27.362c-.689-.284-1.478.045-1.762.734-.284.689.045,1.479.734,1.762l66.45,27.362h0c.689.284,1.478-.045,1.762-.734.284-.689-.045-1.479-.734-1.762Z"/><path d="M1100.335,853.949l-73.145-30.118c-.689-.284-1.479.045-1.762.734-.284.689.045,1.478.734,1.762l73.145,30.118c.689.284,1.478-.045,1.762-.734s-.045-1.478-.734-1.762Z"/><path d="M1102.906,836.297l-66.45-27.362c-.689-.284-1.478.045-1.762.734s.045,1.478.734,1.762l66.45,27.362h0c.689.284,1.479-.045,1.762-.734.284-.689-.045-1.479-.734-1.762Z"/><path d="M1001.72,644.201l-13.85,5.716c-2.042-4.763-5.495-8.979-10.211-11.951l-79.221-49.917c-4.716-2.972-10.009-4.267-15.188-4.053l-.822-14.961-14.28,3.24,5.716,13.85c-4.763,2.042-8.979,5.495-11.951,10.211l-49.918,79.222c-2.971,4.716-4.267,10.009-4.053,15.187l-14.961.822,3.24,14.28,13.85-5.716c2.042,4.763,5.495,8.979,10.211,11.951l79.222,49.917c4.716,2.972,10.009,4.267,15.187,4.053l.822,14.961,14.28-3.24-5.716-13.85c4.763-2.042,8.979-5.495,11.951-10.211l49.917-79.222c2.972-4.716,4.267-10.009,4.053-15.188l14.961-.822-3.24-14.28ZM918.254,673.801l-15.605,3.541,3.541,15.605c.376,1.655-.662,3.302-2.317,3.677-1.655.376-3.302-.662-3.677-2.317l-3.541-15.605-15.605,3.541c-1.655.376-3.302-.662-3.677-2.317s.662-3.302,2.317-3.677l15.605-3.541-3.541-15.605c-.376-1.655.662-3.302,2.317-3.677,1.655-.376,3.302.662,3.677,2.317l3.541,15.605,15.605-3.541c1.655-.376,3.302.662,3.677,2.317.376,1.655-.662,3.302-2.317,3.677Z"/></svg>